HIERARCHY
ROOT Hips
{
  OFFSET 0 0 0
  CHANNELS 6 Xposition Yposition Zposition Zrotation Yrotation Xrotation
  JOINT LeftThigh
  {
    OFFSET 8.409438 0 -5.917753
    CHANNELS 3 Zrotation Yrotation Xrotation
    JOINT LeftLeg
    {
      OFFSET 0 0 -42.358652
      CHANNELS 3 Zrotation Yrotation Xrotation
      JOINT LeftFoot
      {
        OFFSET 0 0 -39.357303
        CHANNELS 3 Zrotation Yrotation Xrotation
      }
    }
  }
  JOINT RightThigh
  {
    OFFSET -8.409438 0 -5.917753
    CHANNELS 3 Zrotation Yrotation Xrotation
    JOINT RightLeg
    {
      OFFSET 0 0 -42.358652
      CHANNELS 3 Zrotation Yrotation Xrotation
      JOINT RightFoot
      {
        OFFSET 0 0 -39.357303
        CHANNELS 3 Zrotation Yrotation Xrotation
      }
    }
  }
  JOINT SpineLow
  {
    OFFSET 0 0 4.719101
    CHANNELS 3 Zrotation Yrotation Xrotation
    JOINT SpineMid
    {
      OFFSET 0 0 12.899191
      CHANNELS 3 Zrotation Yrotation Xrotation
      JOINT Chest
      {
        OFFSET 0 0 12.899191
        CHANNELS 3 Zrotation Yrotation Xrotation
        JOINT LeftShoulder
        {
          OFFSET 7.550562 1.41573 9.438202
          CHANNELS 3 Zrotation Yrotation Xrotation
          JOINT LeftArm
          {
            OFFSET 9.155056 0 4.247191
            CHANNELS 3 Zrotation Yrotation Xrotation
            JOINT LeftForearm
            {
              OFFSET 0 0 25.771955
              CHANNELS 3 Zrotation Yrotation Xrotation
              JOINT LeftHand
              {
                OFFSET 0 0 25.197169
                CHANNELS 3 Zrotation Yrotation Xrotation
              }
            }
          }
        }
        JOINT RightShoulder
        {
          OFFSET -7.550562 1.41573 9.438202
          CHANNELS 3 Zrotation Yrotation Xrotation
          JOINT RightArm
          {
            OFFSET -9.155056 0 4.247191
            CHANNELS 3 Zrotation Yrotation Xrotation
            JOINT RightForearm
            {
              OFFSET 0 0 -25.771955
              CHANNELS 3 Zrotation Yrotation Xrotation
              JOINT RightHand
              {
                OFFSET 0 0 -25.197169
                CHANNELS 3 Zrotation Yrotation Xrotation
              }
            }
          }
        }
        JOINT Neck
        {
          OFFSET 0 0 15.101124
          CHANNELS 3 Zrotation Yrotation Xrotation
          JOINT Head
          {
            OFFSET 0 0 11.325843
            CHANNELS 3 Zrotation Yrotation Xrotation
            End Site
            {
              OFFSET 0 0 14.157303
            }
          }
        }
      }
    }
  }
}
MOTION
Frames: 11
Frame Time: 0.0
0.0  93.25843  0.0  -86.425424  36.612708  -164.260408  42.239725  -53.683345  -47.519144  1.149323  8.48607  11.666741  -5.667377  -4.35123  0.969081  -6.268227  24.516479  -55.568651  -11.010597  13.530713  13.555932  0.416736  -9.343643  -4.970212  -0.703119  -4.929444  -0.805151  -1.778546  -13.49486  -2.082439  -1.778546  -13.494861  -2.082439  -27.497065  29.705442  2.145915  137.496191  46.185099  -149.902305  -19.985512  5.714106  71.261491  40.267268  -6.254836  12.811368  0.594222  -9.752756  18.205523  26.372734  59.750925  -5.733561  -32.415923  -27.488003  -90.364395  66.654819  24.386536  3.025267  -17.965845  -2.719421  13.309006  -13.420286  -2.434833  9.910127  
0.0  93.25843  0.0  -86.925875  37.166772  -164.566285  40.59905  -53.978175  -45.958324  1.407185  8.640781  10.643166  -5.158402  -4.272606  1.097693  -4.765142  26.733345  -55.214929  -11.193505  13.888632  16.199267  0.666736  -8.965123  -5.318496  -0.535667  -4.641825  -0.780133  -1.327872  -12.70323  -2.051846  -1.327872  -12.70323  -2.051846  -28.396846  28.830719  1.301109  136.00995  45.783996  -150.901993  -21.044547  5.528289  71.018289  40.258766  -5.988551  12.563555  0.273682  -10.254391  17.095848  26.266134  59.178659  -5.687864  -32.902777  -26.356801  -90.39479  67.015381  23.97571  3.068726  -18.329991  -3.356046  13.035492  -13.679447  -2.912782  9.683478  
0.0  93.25843  0.0  -87.791722  37.493213  -165.027615  40.813128  -53.183356  -46.266652  1.146422  8.385736  10.134408  -5.55331  -4.072739  0.989262  -3.285424  29.049254  -54.879918  -11.108777  13.767216  19.404629  0.234338  -8.433393  -5.639106  -0.444782  -4.436544  -0.805517  -1.077654  -12.139815  -2.141672  -1.077654  -12.139815  -2.141672  -28.924798  28.300993  0.884713  134.982969  45.561894  -151.336121  -21.194092  5.107646  70.810347  40.171648  -5.941955  12.43258  -0.189924  -10.587553  16.463798  25.949668  58.968745  -5.773292  -33.413084  -25.044463  -90.414313  67.140027  23.564487  2.746236  -18.638266  -3.849121  12.696434  -13.900654  -3.279382  9.411656  
0.0  93.25843  0.0  -88.697026  37.63327  -165.589254  42.80799  -51.656858  -48.130823  0.140038  8.219652  10.048738  -6.483563  -3.945537  0.781272  -1.254528  31.543877  -54.388105  -11.469657  13.494628  23.051583  -0.701415  -7.818691  -5.889262  -0.262108  -4.271266  -0.908669  -0.559821  -11.682966  -2.460783  -0.559821  -11.682966  -2.460783  -29.978543  28.034663  0.978958  134.722608  45.650481  -151.167389  -20.423256  4.756953  70.586726  39.959264  -6.089183  12.379754  -1.299348  -10.973029  16.270258  25.436865  59.078963  -5.888542  -33.798847  -24.088167  -90.601062  67.292136  23.087783  2.403188  -19.439585  -4.265536  12.43388  -14.493334  -3.60074  9.1963  
0.0  93.25843  0.0  -89.656728  37.70622  -166.242031  45.112107  -49.877887  -50.362379  -1.400429  8.187303  10.1341  -7.33871  -3.846543  0.59694  1.094012  33.96431  -53.66418  -12.498787  13.392166  26.720956  -1.736777  -7.261697  -6.072084  -0.127648  -4.14661  -0.995406  -0.178366  -11.337383  -2.723529  -0.178366  -11.337383  -2.723529  -30.790295  27.861514  1.165803  135.057745  45.905046  -150.548425  -19.277851  4.642241  70.376152  39.904471  -6.170387  12.442742  -2.351086  -11.203999  16.215402  24.887545  59.35501  -6.090177  -34.005733  -23.637321  -90.894099  67.353543  22.659911  2.005272  -20.158604  -4.611271  12.124392  -15.026356  -3.865126  8.94759  
0.0  93.25843  0.0  -90.734751  37.742306  -167.028861  46.716842  -48.319185  -52.201244  -2.904905  8.164489  10.283018  -7.748515  -3.886381  0.525297  2.584611  35.220691  -52.899234  -13.345802  13.736171  29.79175  -2.300946  -6.925469  -6.156709  -0.10919  -4.116012  -1.030447  -0.122675  -11.253005  -2.823169  -0.122675  -11.253005  -2.823169  -31.11452  27.999899  1.102984  135.606262  46.145822  -149.783793  -17.843189  4.726253  70.181352  39.994807  -6.386042  12.348919  -2.591745  -11.032145  16.038065  24.113793  59.582703  -6.4457  -34.020439  -23.476541  -91.250415  67.49283  22.278117  1.760421  -20.523696  -4.723376  11.684293  -15.300407  -3.941845  8.61087  
0.0  93.25843  0.0  -91.974041  37.829465  -168.251178  47.121992  -47.337055  -53.074858  -4.146045  8.082663  10.379217  -7.948692  -3.864741  0.482415  2.692138  34.846385  -52.130059  -13.395504  14.666974  32.191141  -2.259669  -6.778275  -6.152367  -0.214073  -4.126194  -1.027158  -0.412035  -11.28526  -2.795966  -0.412035  -11.285261  -2.795966  -30.910345  28.421651  1.228624  135.8969  46.340079  -149.172765  -16.629401  4.240821  70.149014  39.577993  -6.38492  12.145325  -2.315345  -10.703048  16.075564  23.422097  59.728819  -6.769452  -34.068625  -23.345192  -91.557584  67.555833  21.983592  1.58084  -20.641085  -4.643249  11.383558  -15.39222  -3.873704  8.387247  
0.0  93.25843  0.0  -92.775689  37.81013  -168.974569  47.394308  -46.714618  -53.641818  -4.902928  7.949783  10.428419  -8.068371  -3.867038  0.438812  1.699176  33.096662  -52.559606  -12.716569  16.340625  34.676382  -1.699723  -6.736831  -6.102848  -0.314449  -4.163044  -1.04609  -0.684014  -11.390321  -2.830714  -0.684014  -11.390321  -2.830714  -30.490267  28.961801  1.395818  135.692415  46.498599  -148.961008  -16.181351  3.784822  69.98449  39.466304  -6.321571  11.957722  -1.870872  -10.255306  16.209979  22.743208  59.745335  -7.127236  -33.948168  -23.372692  -91.996917  67.531248  21.743263  1.49558  -20.608546  -4.484954  11.220773  -15.372364  -3.748629  8.270954  
0.0  93.25843  0.0  -93.511437  37.906511  -169.792539  46.832636  -46.782686  -53.409886  -5.124067  7.924816  10.328279  -7.997141  -3.849874  0.412314  -0.543752  30.299278  -53.973581  -10.828153  18.294566  37.691389  -1.100425  -6.659302  -5.908491  -0.497016  -4.20681  -1.031764  -1.188385  -11.517351  -2.758764  -1.188385  -11.517351  -2.758764  -29.760643  29.60921  1.504274  135.182863  46.642001  -149.055816  -16.863608  3.837432  69.770241  40.663865  -5.998702  12.012471  -1.044852  -9.745771  16.478468  22.029758  59.737355  -7.600543  -33.706867  -23.539651  -92.507029  67.486297  21.566603  1.492287  -20.337576  -4.21296  11.175292  -15.175351  -3.53767  8.248137  
0.0  93.25843  0.0  -93.791643  38.000624  -170.136826  46.132502  -47.281053  -52.900453  -4.757403  7.972414  10.264821  -7.927627  -3.854947  0.431493  -3.165396  26.717994  -56.021736  -8.200745  20.529011  40.970016  -0.398679  -6.48322  -5.617173  -0.658587  -4.244599  -1.019084  -1.635013  -11.626876  -2.694478  -1.635013  -11.626876  -2.694478  -28.977623  30.141695  1.487012  134.733144  46.743489  -149.250071  -17.582022  3.966605  69.42889  41.020435  -5.884772  11.89193  -0.098226  -9.308214  16.615032  21.701284  59.639607  -7.828052  -33.416333  -23.820634  -93.078592  67.4098  21.393549  1.507864  -19.94609  -3.953805  11.196689  -14.887188  -3.336363  8.275452  
0.0  93.25843  0.0  -93.929278  38.193322  -170.378792  45.072152  -48.071912  -52.10456  -4.050324  8.123846  10.255177  -8.909881  -3.391323  0.70219  -5.327393  22.830917  -57.8648  -5.325544  23.264718  44.428911  0.508014  -6.259155  -5.310208  -0.792001  -4.235129  -0.977027  -2.011008  -11.60504  -2.554696  -2.011008  -11.605041  -2.554696  -28.447829  30.307132  1.324905  134.603572  46.874102  -149.347693  -18.135402  3.970043  69.133917  41.050546  -5.729628  11.814692  0.56912  -9.14105  16.755406  21.528522  59.632508  -8.202848  -33.094587  -24.183394  -93.741583  67.314087  21.198238  1.586935  -19.60423  -3.868907  11.197578  -14.632592  -3.2662  8.280861  
